<svg width="375" height="31" viewBox="0 0 375 31" fill="none" xmlns="http://www.w3.org/2000/svg">
<path d="M0 30.6869C3.52303e-07 26.657 0.793744 22.6666 2.33591 18.9435C3.87808 15.2204 6.13847 11.8375 8.98802 8.98796C11.8376 6.13841 15.2205 3.87803 18.9436 2.33588C22.6667 0.79372 26.6571 -1.15775e-05 30.687 1.26848e-10L30.6869 30.6869L0 30.6869Z" fill="#4141FF"/>
<path d="M163.57 30.6871C163.57 27.9512 164.109 25.2421 165.156 22.7145C166.203 20.1869 167.737 17.8902 169.672 15.9557C171.606 14.0211 173.903 12.4866 176.431 11.4396C178.958 10.3926 181.667 9.85375 184.403 9.85376L184.403 30.6871L163.57 30.6871Z" fill="#57C4FD"/>
<path d="M153.716 0.00011853C153.716 4.02999 152.922 8.0204 151.38 11.7435C149.838 15.4666 147.578 18.8495 144.728 21.6991C141.879 24.5486 138.496 26.809 134.772 28.3512C131.049 29.8933 127.059 30.687 123.029 30.687L123.029 0.000113165L153.716 0.00011853Z" fill="#FF9632"/>
<path d="M92.3424 0.00011853C92.3424 4.02999 91.5487 8.0204 90.0065 11.7435C88.4643 15.4666 86.2039 18.8495 83.3544 21.6991C80.5048 24.5486 77.1219 26.809 73.3988 28.3512C69.6757 29.8933 65.6853 30.687 61.6554 30.687L61.6555 0.000113165L92.3424 0.00011853Z" fill="#FFD741"/>
<path d="M30.687 0C34.7169 4.80557e-08 38.7073 0.793741 42.4304 2.3359C46.1535 3.87807 49.5364 6.13845 52.3859 8.988C55.2355 11.8375 57.4959 15.2204 59.038 18.9436C60.5802 22.6667 61.3739 26.6571 61.3739 30.6869L30.687 30.6869L30.687 0Z" fill="#DCFA64"/>
<path d="M123.029 30.687C118.999 30.687 115.009 29.8933 111.286 28.3511C107.563 26.809 104.18 24.5486 101.33 21.699C98.4808 18.8495 96.2204 15.4666 94.6782 11.7435C93.1361 8.02036 92.3423 4.02996 92.3423 9.0484e-05L123.029 0.000113165V30.687Z" fill="#FF6E5A"/>
<path d="M184.403 0C188.433 4.80557e-08 192.423 0.793741 196.146 2.3359C199.869 3.87807 203.252 6.13845 206.102 8.988C208.951 11.8375 211.212 15.2204 212.754 18.9436C214.296 22.6667 215.09 26.6571 215.09 30.6869L184.403 30.6869L184.403 0Z" fill="#FF6E5A"/>
<path d="M215.372 0C219.401 4.80557e-08 223.392 0.793741 227.115 2.3359C230.838 3.87807 234.221 6.13845 237.071 8.988C239.92 11.8375 242.18 15.2204 243.723 18.9436C245.265 22.6667 246.059 26.6571 246.059 30.6869L215.372 30.6869L215.372 0Z" fill="#4141FF"/>
<path fill-rule="evenodd" clip-rule="evenodd" d="M42.5506 2.33817C38.7894 0.794512 34.7581 4.81022e-08 30.687 0L30.687 30.7167L61.6881 30.7167C61.6881 26.683 60.8863 22.6887 59.3283 18.962C57.7704 15.2352 55.4868 11.849 52.6081 8.99673C49.7294 6.14441 46.3119 3.88183 42.5506 2.33817ZM42.9999 5.5298C39.9979 4.2977 36.7803 3.66355 33.5308 3.66355L33.5308 28.1806L58.2748 28.1806C58.2748 24.961 57.6348 21.7729 56.3913 18.7983C55.1478 15.8238 53.3252 13.121 51.0275 10.8444C48.7298 8.56781 46.002 6.76189 42.9999 5.5298Z" fill="#FF9632"/>
<path d="M332.77 12.8097C332.77 16.7746 329.556 19.9887 325.591 19.9887C321.627 19.9887 318.412 16.7746 318.412 12.8097C318.412 8.8448 321.627 5.63063 325.591 5.63063C329.556 5.63063 332.77 8.8448 332.77 12.8097Z" fill="#4141FF"/>
<path d="M246.059 30.6869C246.059 26.6571 246.852 22.6667 248.394 18.9435C249.937 15.2204 252.197 11.8375 255.047 8.98799C257.896 6.13844 261.279 3.87806 265.002 2.3359C268.725 0.793739 272.716 -5.28452e-07 276.746 0C280.775 5.28453e-07 284.766 0.793742 288.489 2.3359C292.212 3.87807 295.595 6.13845 298.444 8.98799C301.294 11.8375 303.554 15.2204 305.097 18.9435C306.639 22.6667 307.432 26.6571 307.432 30.6869L246.059 30.6869Z" fill="#DCFA64"/>
<path d="M344.313 30.6869C344.313 22.5482 347.546 14.7429 353.301 8.98799C359.056 3.23308 366.861 -9.70528e-08 375 0V30.6869L344.313 30.6869Z" fill="#FFD741"/>
<path d="M276.746 0C284.884 9.70532e-08 292.69 3.23308 298.444 8.98799C304.199 14.7429 307.432 22.5483 307.432 30.6869L298.41 30.6869C298.41 24.9412 296.127 19.4308 292.064 15.368C288.002 11.3052 282.491 9.02272 276.746 9.02272L276.746 0Z" fill="#FF6E5A"/>
<path d="M344.313 30.6869C344.313 22.5482 347.546 14.7429 353.301 8.98799C359.056 3.23308 366.861 -9.70528e-08 375 0L375 9.02272C369.254 9.02272 363.744 11.3052 359.681 15.368C355.618 19.4308 353.336 24.9412 353.336 30.6869H344.313Z" fill="#4141FF"/>
</svg>
