<svg width="40" height="40" viewBox="0 0 40 40" fill="none" xmlns="http://www.w3.org/2000/svg">
<circle cx="20" cy="20" r="20" transform="rotate(-90 20 20)" fill="#1E1E1E" fill-opacity="0.75"/>
<path d="M20 18.2986L14.0452 12.3438C13.8188 12.122 13.514 11.9984 13.197 12C12.8801 12.0016 12.5765 12.1282 12.3524 12.3524C12.1282 12.5765 12.0016 12.8801 12 13.197C11.9984 13.514 12.122 13.8188 12.3438 14.0452L18.2986 20L12.3438 25.9548C12.122 26.1812 11.9984 26.486 12 26.803C12.0016 27.1199 12.1282 27.4235 12.3524 27.6476C12.5765 27.8718 12.8801 27.9984 13.197 28C13.514 28.0016 13.8188 27.878 14.0452 27.6562L20 21.7014L25.9548 27.6562C26.1812 27.878 26.486 28.0016 26.803 28C27.1199 27.9984 27.4235 27.8718 27.6476 27.6476C27.8718 27.4235 27.9984 27.1199 28 26.803C28.0016 26.486 27.878 26.1812 27.6562 25.9548L21.7014 20L27.6562 14.0452C27.878 13.8188 28.0016 13.514 28 13.197C27.9984 12.8801 27.8718 12.5765 27.6476 12.3524C27.4235 12.1282 27.1199 12.0016 26.803 12C26.486 11.9984 26.1812 12.122 25.9548 12.3438L20 18.2986Z" fill="white"/>
</svg>
