<svg width="14" height="15" viewBox="0 0 14 15" fill="none" xmlns="http://www.w3.org/2000/svg">
<path d="M14.0031 7.49984C14.0031 5.64336 13.2656 3.86293 11.9529 2.55021C10.6402 1.23748 8.85973 0.500003 7.00326 0.500003C5.24064 0.498375 3.5423 1.16178 2.24747 2.3577C0.952637 3.55362 0.156646 5.19401 0.0184949 6.9512C-0.119656 8.70839 0.410204 10.453 1.50224 11.8366C2.59427 13.2202 4.16807 14.1408 5.90928 14.4147V9.52279H4.13333V7.49984H5.91028V5.95787C5.91028 4.20391 6.95526 3.23394 8.55422 3.23394C9.3202 3.23394 10.1212 3.37093 10.1212 3.37093V5.09389H9.2382C8.36823 5.09389 8.09823 5.63388 8.09823 6.18687V7.49984H10.0392L9.72919 9.52279H8.09723V14.4147C9.7437 14.1539 11.2431 13.3143 12.3257 12.0467C13.4083 10.7791 14.0031 9.16682 14.0031 7.49984Z" fill="#C4C4C4"/>
<path d="M9.72823 9.52252L10.0382 7.49956H8.09727V6.1866C8.09727 5.63361 8.36726 5.09362 9.23724 5.09362H10.1202V3.36966C10.1202 3.36966 9.31924 3.23267 8.55326 3.23267C6.95329 3.23267 5.90932 4.20264 5.90932 5.9566V7.49956H4.13336V9.52252H5.91032V14.4144C6.63517 14.5285 7.37341 14.5285 8.09827 14.4144V9.52252H9.72823Z" fill="white"/>
</svg>
