<svg width="20" height="21" viewBox="0 0 20 21" fill="none" xmlns="http://www.w3.org/2000/svg">
<path d="M20.0042 10.6192C20.0042 7.96717 18.9507 5.42374 17.0754 3.54845C15.2001 1.67316 12.6566 0.619633 10.0046 0.619633C7.4866 0.617308 5.06043 1.56501 3.2107 3.27344C1.36097 4.98187 0.223863 7.32524 0.0265079 9.83547C-0.170847 12.3457 0.586083 14.838 2.1461 16.8145C3.70612 18.791 5.95438 20.1062 8.44178 20.4974V13.5091H5.90474V10.6192H8.44321V8.41646C8.44321 5.91085 9.93601 4.52519 12.2202 4.52519C13.3144 4.52519 14.4587 4.7209 14.4587 4.7209V7.18223H13.1973C11.9545 7.18223 11.5688 7.95362 11.5688 8.74359V10.6192H14.3415L13.8987 13.5091H11.5674V20.4974C13.9194 20.1249 16.0614 18.9254 17.608 17.1146C19.1546 15.3038 20.0042 13.0006 20.0042 10.6192Z" fill="#1877F2"/>
<path d="M13.8973 13.5093L14.3402 10.6194H11.5674V8.74376C11.5674 7.95379 11.9531 7.18239 13.1959 7.18239H14.4573V4.71963C14.4573 4.71963 13.3131 4.52393 12.2188 4.52393C9.9332 4.52393 8.44183 5.90958 8.44183 8.4152V10.6194H5.90479V13.5093H8.44325V20.4976C9.47875 20.6605 10.5334 20.6605 11.5688 20.4976V13.5093H13.8973Z" fill="white"/>
</svg>
