<svg width="48" height="13" viewBox="0 0 48 13" fill="none" xmlns="http://www.w3.org/2000/svg">
<g clip-path="url(#clip0_80457_114)">
<path fill-rule="evenodd" clip-rule="evenodd" d="M7.55178 0.508362C7.82963 0.508362 8.10123 0.594048 8.33225 0.754585C8.56327 0.915122 8.74333 1.1433 8.84966 1.41026C8.95598 1.67722 8.9838 1.97098 8.9296 2.25439C8.87539 2.5378 8.7416 2.79812 8.54513 3.00245C8.34867 3.20677 8.09835 3.34592 7.82585 3.40229C7.55334 3.45866 7.27088 3.42973 7.01418 3.31915C6.75749 3.20857 6.53809 3.02131 6.38373 2.78105C6.22936 2.54079 6.14697 2.25832 6.14697 1.96936C6.14713 1.58193 6.29518 1.21041 6.5586 0.936454C6.82202 0.662498 7.17925 0.508521 7.55178 0.508362V0.508362Z" fill="#FF9632"/>
<path d="M13.3122 10.2446C12.6637 10.2446 12.1637 10.0342 11.8122 9.61337C11.4606 9.19257 11.2845 8.57577 11.2837 7.76297V4.71497H12.6106V7.63217C12.6106 8.09657 12.7014 8.45217 12.8829 8.69897C13.0645 8.94577 13.3504 9.06897 13.7408 9.06857C13.9133 9.07328 14.0846 9.03872 14.2429 8.96731C14.4011 8.8959 14.5425 8.78936 14.657 8.65517C14.8977 8.37997 15.0181 7.99537 15.0181 7.50137V4.71497H16.3577V10.115H15.1733L15.0706 9.19997C14.9123 9.51705 14.6711 9.78119 14.3748 9.96197C14.0522 10.1556 13.6846 10.2533 13.3122 10.2446Z" fill="#4141FF"/>
<path d="M17.624 10.1138V4.71378H18.8079L18.9233 5.44338C19.092 5.18218 19.3198 4.96811 19.5867 4.81998C19.8818 4.65904 20.2113 4.57853 20.5444 4.58598C21.3463 4.58598 21.915 4.90898 22.2504 5.55498C22.4407 5.25542 22.702 5.01181 23.009 4.84758C23.33 4.67217 23.6878 4.58228 24.0504 4.58598C24.7273 4.58598 25.2465 4.79658 25.6081 5.21778C25.9696 5.63898 26.1509 6.25579 26.1521 7.06819V10.1156H24.8142V7.19659C24.8142 6.73219 24.7288 6.37659 24.5581 6.12979C24.3873 5.88299 24.1244 5.75978 23.7694 5.76018C23.6029 5.75414 23.4373 5.78833 23.2857 5.86006C23.134 5.93179 23.0004 6.03911 22.8954 6.17359C22.6758 6.44959 22.5659 6.83419 22.5659 7.32739V10.1138H21.2246V7.19659C21.2246 6.73219 21.1373 6.37659 20.9627 6.12979C20.7881 5.88299 20.5188 5.75978 20.155 5.76018C19.9898 5.75467 19.8257 5.78914 19.6755 5.86088C19.5253 5.93262 19.3932 6.03967 19.2896 6.17359C19.07 6.44959 18.96 6.83419 18.9596 7.32739V10.1138H17.624Z" fill="#4141FF"/>
<path d="M27.3262 12.5083V4.71493H28.5192L28.6658 5.48773C28.8467 5.23524 29.0722 5.021 29.3304 4.85653C29.6062 4.67533 29.9639 4.58453 30.4035 4.58413C30.8643 4.57644 31.3178 4.70481 31.7114 4.95433C32.0957 5.20202 32.4101 5.55129 32.6223 5.96653C32.8504 6.4156 32.9655 6.91736 32.9569 7.42513C32.966 7.93123 32.8508 8.43138 32.6223 8.87833C32.4099 9.29059 32.0954 9.63631 31.7114 9.87973C31.3169 10.1258 30.864 10.2522 30.4041 10.2445C30.0496 10.2529 29.6983 10.1746 29.3783 10.0159C29.0916 9.86922 28.8464 9.64784 28.6664 9.37333V12.5083H27.3262ZM30.1208 9.02833C30.3171 9.03426 30.5125 8.99764 30.6944 8.92079C30.8764 8.84393 31.041 8.72853 31.1777 8.58193C31.4569 8.28433 31.5966 7.89973 31.5966 7.42813C31.5966 6.95653 31.4569 6.56713 31.1777 6.25993C31.0425 6.11047 30.8785 5.99245 30.6963 5.91365C30.5141 5.83485 30.318 5.79705 30.1208 5.80273C29.6881 5.80273 29.3339 5.95333 29.0581 6.25453C28.7823 6.55573 28.6446 6.94213 28.645 7.41373C28.645 7.88533 28.7827 8.27173 29.0581 8.57293C29.3335 8.87413 29.6877 9.02493 30.1208 9.02533V9.02833Z" fill="#4141FF"/>
<path fill-rule="evenodd" clip-rule="evenodd" d="M1.37228 8.83034C2.25125 9.74446 3.44339 10.258 4.68644 10.258V8.91281L4.68643 1.85442C4.68643 1.85442 4.68643 1.85442 4.68644 1.85442V0.509216C3.44339 0.509216 2.25125 1.02277 1.37228 1.93689C0.493311 2.85102 -0.000488281 4.09084 -0.000488281 5.38362C-0.000488281 6.67639 0.493311 7.91621 1.37228 8.83034Z" fill="#4141FF"/>
<path d="M5.37793 10.2572V8.91201C6.16581 8.9115 6.92906 8.62633 7.53711 8.10526C8.14517 7.58419 8.56026 6.85959 8.71139 6.05541H5.37793V4.71021H10.0649V5.38281C10.0633 6.67509 9.56904 7.91399 8.6904 8.82777C7.81176 9.74156 6.62051 10.2556 5.37793 10.2572V10.2572Z" fill="#FF9632"/>
</g>
<path d="M34.25 10.07C34.0767 10.07 33.9267 10.01 33.8 9.89C33.68 9.76333 33.62 9.61333 33.62 9.44C33.62 9.26667 33.68 9.12 33.8 9C33.9267 8.87333 34.0767 8.81 34.25 8.81C34.4233 8.81 34.57 8.87333 34.69 9C34.8167 9.12 34.88 9.26667 34.88 9.44C34.88 9.61333 34.8167 9.76333 34.69 9.89C34.57 10.01 34.4233 10.07 34.25 10.07ZM38.3561 12.14C37.9828 12.14 37.6194 12.0967 37.2661 12.01C36.9128 11.9233 36.5928 11.8 36.3061 11.64L36.6861 10.86C36.9861 11.0133 37.2661 11.1233 37.5261 11.19C37.7928 11.2633 38.0594 11.3 38.3261 11.3C38.7728 11.3 39.1094 11.1967 39.3361 10.99C39.5694 10.7833 39.6861 10.48 39.6861 10.08V9.5C39.2394 9.85333 38.7294 10.03 38.1561 10.03C37.6894 10.03 37.2594 9.91667 36.8661 9.69C36.4794 9.45667 36.1728 9.14333 35.9461 8.75C35.7194 8.35 35.6061 7.91 35.6061 7.43C35.6061 6.94333 35.7194 6.50333 35.9461 6.11C36.1794 5.71 36.4894 5.39667 36.8761 5.17C37.2694 4.93667 37.7094 4.82 38.1961 4.82C38.4694 4.82 38.7328 4.86667 38.9861 4.96C39.2461 5.04667 39.4828 5.17333 39.6961 5.34V4.91H40.6861V10.08C40.6861 10.74 40.4828 11.2467 40.0761 11.6C39.6761 11.96 39.1028 12.14 38.3561 12.14ZM38.2861 9.17C38.5794 9.17 38.8461 9.12 39.0861 9.02C39.3261 8.91333 39.5261 8.76333 39.6861 8.57V6.29C39.5261 6.10333 39.3228 5.95667 39.0761 5.85C38.8361 5.74333 38.5728 5.69 38.2861 5.69C37.9661 5.69 37.6761 5.76667 37.4161 5.92C37.1628 6.07333 36.9594 6.28333 36.8061 6.55C36.6594 6.81 36.5861 7.10333 36.5861 7.43C36.5861 7.75667 36.6594 8.05333 36.8061 8.32C36.9594 8.58 37.1628 8.78667 37.4161 8.94C37.6761 9.09333 37.9661 9.17 38.2861 9.17ZM44.3815 12.14C44.0082 12.14 43.6448 12.0967 43.2915 12.01C42.9382 11.9233 42.6182 11.8 42.3315 11.64L42.7115 10.86C43.0115 11.0133 43.2915 11.1233 43.5515 11.19C43.8182 11.2633 44.0848 11.3 44.3515 11.3C44.7982 11.3 45.1348 11.1967 45.3615 10.99C45.5948 10.7833 45.7115 10.48 45.7115 10.08V9.5C45.2648 9.85333 44.7548 10.03 44.1815 10.03C43.7148 10.03 43.2848 9.91667 42.8915 9.69C42.5048 9.45667 42.1982 9.14333 41.9715 8.75C41.7448 8.35 41.6315 7.91 41.6315 7.43C41.6315 6.94333 41.7448 6.50333 41.9715 6.11C42.2048 5.71 42.5148 5.39667 42.9015 5.17C43.2948 4.93667 43.7348 4.82 44.2215 4.82C44.4948 4.82 44.7582 4.86667 45.0115 4.96C45.2715 5.04667 45.5082 5.17333 45.7215 5.34V4.91H46.7115V10.08C46.7115 10.74 46.5082 11.2467 46.1015 11.6C45.7015 11.96 45.1282 12.14 44.3815 12.14ZM44.3115 9.17C44.6048 9.17 44.8715 9.12 45.1115 9.02C45.3515 8.91333 45.5515 8.76333 45.7115 8.57V6.29C45.5515 6.10333 45.3482 5.95667 45.1015 5.85C44.8615 5.74333 44.5982 5.69 44.3115 5.69C43.9915 5.69 43.7015 5.76667 43.4415 5.92C43.1882 6.07333 42.9848 6.28333 42.8315 6.55C42.6848 6.81 42.6115 7.10333 42.6115 7.43C42.6115 7.75667 42.6848 8.05333 42.8315 8.32C42.9848 8.58 43.1882 8.78667 43.4415 8.94C43.7015 9.09333 43.9915 9.17 44.3115 9.17Z" fill="#4141FF"/>
<defs>
<clipPath id="clip0_80457_114">
<rect width="33" height="12" fill="white" transform="translate(0 0.5)"/>
</clipPath>
</defs>
</svg>
