<svg width="14" height="15" viewBox="0 0 14 15" fill="none" xmlns="http://www.w3.org/2000/svg">
<path fill-rule="evenodd" clip-rule="evenodd" d="M6.99683 11.318C9.10555 11.318 10.815 9.60854 10.815 7.49982C10.815 5.3911 9.10555 3.68164 6.99683 3.68164C4.88811 3.68164 3.17865 5.3911 3.17865 7.49982C3.17865 9.60854 4.88811 11.318 6.99683 11.318ZM6.99683 10.0453C8.40262 10.0453 9.54229 8.90561 9.54229 7.49982C9.54229 6.09401 8.40262 4.95437 6.99683 4.95437C5.59102 4.95437 4.45138 6.09401 4.45138 7.49982C4.45138 8.90561 5.59102 10.0453 6.99683 10.0453Z" fill="#C4C4C4"/>
<path d="M10.8152 3.04541C10.4637 3.04541 10.1788 3.33032 10.1788 3.68177C10.1788 4.03322 10.4637 4.31814 10.8152 4.31814C11.1667 4.31814 11.4516 4.03322 11.4516 3.68177C11.4516 3.33032 11.1667 3.04541 10.8152 3.04541Z" fill="#C4C4C4"/>
<path fill-rule="evenodd" clip-rule="evenodd" d="M0.413105 2.58477C-0.00305176 3.40152 -0.00305176 4.47071 -0.00305176 6.60909V8.39091C-0.00305176 10.5293 -0.00305176 11.5985 0.413105 12.4152C0.779166 13.1337 1.36327 13.7178 2.08171 14.0838C2.89847 14.5 3.96766 14.5 6.10604 14.5H7.88786C10.0262 14.5 11.0954 14.5 11.9122 14.0838C12.6306 13.7178 13.2147 13.1337 13.5808 12.4152C13.9969 11.5985 13.9969 10.5293 13.9969 8.39091V6.60909C13.9969 4.47071 13.9969 3.40152 13.5808 2.58477C13.2147 1.86632 12.6306 1.28222 11.9122 0.916156C11.0954 0.5 10.0262 0.5 7.88786 0.5H6.10604C3.96766 0.5 2.89847 0.5 2.08171 0.916156C1.36327 1.28222 0.779166 1.86632 0.413105 2.58477ZM7.88786 1.77273H6.10604C5.01585 1.77273 4.27474 1.77372 3.70191 1.82052C3.14392 1.86611 2.85857 1.94874 2.65952 2.05016C2.18056 2.29421 1.79116 2.68361 1.54711 3.16257C1.44569 3.36163 1.36306 3.64697 1.31747 4.20496C1.27067 4.7778 1.26968 5.5189 1.26968 6.60909V8.39091C1.26968 9.48113 1.27067 10.2222 1.31747 10.795C1.36306 11.3531 1.44569 11.6384 1.54711 11.8375C1.79116 12.3164 2.18056 12.7058 2.65952 12.9498C2.85857 13.0513 3.14392 13.1339 3.70191 13.1795C4.27474 13.2263 5.01585 13.2273 6.10604 13.2273H7.88786C8.97808 13.2273 9.71912 13.2263 10.292 13.1795C10.85 13.1339 11.1353 13.0513 11.3344 12.9498C11.8133 12.7058 12.2027 12.3164 12.4468 11.8375C12.5482 11.6384 12.6309 11.3531 12.6764 10.795C12.7232 10.2222 12.7242 9.48113 12.7242 8.39091V6.60909C12.7242 5.5189 12.7232 4.7778 12.6764 4.20496C12.6309 3.64697 12.5482 3.36163 12.4468 3.16257C12.2027 2.68361 11.8133 2.29421 11.3344 2.05016C11.1353 1.94874 10.85 1.86611 10.292 1.82052C9.71912 1.77372 8.97808 1.77273 7.88786 1.77273Z" fill="#C4C4C4"/>
</svg>
