<svg width="20" height="21" viewBox="0 0 20 21" fill="none" xmlns="http://www.w3.org/2000/svg">
<path d="M5.0672 20.5489C3.8778 20.4948 3.23168 20.2969 2.80192 20.1292C2.23248 19.9075 1.8265 19.6436 1.39912 19.2168C0.971743 18.79 0.707232 18.3841 0.486707 17.8146C0.319085 17.3849 0.121147 16.7387 0.0670563 15.5493C0.00761567 14.2636 -0.00427246 13.8779 -0.00427246 10.6205C-0.00427246 7.36317 0.00880448 6.978 0.0664619 5.69111C0.120553 4.5017 0.319679 3.85677 0.486113 3.42582C0.707827 2.85638 0.972338 2.4504 1.39853 2.02243C1.82531 1.59564 2.23129 1.33054 2.80133 1.11001C3.23108 0.942392 3.8772 0.744454 5.06661 0.690363C6.35291 0.631517 6.73927 0.619629 9.99543 0.619629C13.2528 0.619629 13.638 0.632706 14.9248 0.690363C16.1143 0.744454 16.7592 0.943581 17.1901 1.11001C17.7596 1.33054 18.1655 1.59564 18.5929 2.02243C19.0203 2.44921 19.2836 2.85579 19.5053 3.42523C19.673 3.85498 19.8709 4.5011 19.925 5.69051C19.9838 6.9774 19.9957 7.36258 19.9957 10.6199C19.9957 13.8761 19.9838 14.2624 19.925 15.5493C19.8709 16.7387 19.6718 17.3849 19.5053 17.8146C19.2836 18.3841 19.0197 18.79 18.5929 19.2168C18.1661 19.6436 17.7596 19.9075 17.1901 20.1292C16.7604 20.2969 16.1143 20.4948 14.9248 20.5489C13.6391 20.6077 13.2528 20.6196 9.99543 20.6196C6.73927 20.6196 6.35291 20.6083 5.0672 20.5489Z" fill="url(#paint0_radial_233_2648)"/>
<path d="M5.0672 20.5489C3.8778 20.4948 3.23168 20.2969 2.80192 20.1292C2.23248 19.9075 1.8265 19.6436 1.39912 19.2168C0.971743 18.79 0.707232 18.3841 0.486707 17.8146C0.319085 17.3849 0.121147 16.7387 0.0670563 15.5493C0.00761567 14.2636 -0.00427246 13.8779 -0.00427246 10.6205C-0.00427246 7.36317 0.00880448 6.978 0.0664619 5.69111C0.120553 4.5017 0.319679 3.85677 0.486113 3.42582C0.707827 2.85638 0.972338 2.4504 1.39853 2.02243C1.82531 1.59564 2.23129 1.33054 2.80133 1.11001C3.23108 0.942392 3.8772 0.744454 5.06661 0.690363C6.35291 0.631517 6.73927 0.619629 9.99543 0.619629C13.2528 0.619629 13.638 0.632706 14.9248 0.690363C16.1143 0.744454 16.7592 0.943581 17.1901 1.11001C17.7596 1.33054 18.1655 1.59564 18.5929 2.02243C19.0203 2.44921 19.2836 2.85579 19.5053 3.42523C19.673 3.85498 19.8709 4.5011 19.925 5.69051C19.9838 6.9774 19.9957 7.36258 19.9957 10.6199C19.9957 13.8761 19.9838 14.2624 19.925 15.5493C19.8709 16.7387 19.6718 17.3849 19.5053 17.8146C19.2836 18.3841 19.0197 18.79 18.5929 19.2168C18.1661 19.6436 17.7596 19.9075 17.1901 20.1292C16.7604 20.2969 16.1143 20.4948 14.9248 20.5489C13.6391 20.6077 13.2528 20.6196 9.99543 20.6196C6.73927 20.6196 6.35291 20.6083 5.0672 20.5489Z" fill="url(#paint1_radial_233_2648)"/>
<path d="M7.5407 10.6623C7.5407 9.29447 8.64921 8.18537 10.017 8.18537C11.3848 8.18537 12.4939 9.29447 12.4939 10.6623C12.4939 12.03 11.3848 13.1392 10.017 13.1392C8.64921 13.1392 7.5407 12.03 7.5407 10.6623ZM6.20174 10.6623C6.20174 12.7694 7.90983 14.4775 10.017 14.4775C12.1242 14.4775 13.8323 12.7694 13.8323 10.6623C13.8323 8.55509 12.1242 6.847 10.017 6.847C7.90983 6.847 6.2018 8.55497 6.2018 10.6623M13.0917 6.69573C13.0917 6.87207 13.1439 7.04447 13.2418 7.19114C13.3397 7.3378 13.4789 7.45214 13.6418 7.51969C13.8047 7.58723 13.984 7.60496 14.1569 7.57063C14.3299 7.5363 14.4888 7.45144 14.6136 7.3268C14.7383 7.20215 14.8233 7.04332 14.8578 6.87038C14.8922 6.69743 14.8746 6.51816 14.8072 6.35521C14.7398 6.19226 14.6256 6.05296 14.479 5.95493C14.3324 5.8569 14.1601 5.80454 13.9837 5.80447H13.9834C13.747 5.80458 13.5203 5.89851 13.3531 6.06561C13.186 6.23272 13.0919 6.45935 13.0917 6.69573ZM7.01524 16.7102C6.29084 16.6772 5.89711 16.5566 5.63545 16.4546C5.28855 16.3196 5.04104 16.1587 4.78081 15.8989C4.52058 15.639 4.35949 15.3917 4.22504 15.0448C4.12304 14.7833 4.00237 14.3894 3.96944 13.665C3.93342 12.8818 3.92623 12.6466 3.92623 10.6624C3.92623 8.67819 3.93402 8.44358 3.96944 7.65973C4.00243 6.93533 4.12399 6.54225 4.22504 6.27994C4.36009 5.93304 4.52094 5.68553 4.78081 5.4253C5.04068 5.16507 5.28796 5.00398 5.63545 4.86953C5.89699 4.76753 6.29084 4.64687 7.01524 4.61394C7.79843 4.57791 8.0337 4.57072 10.017 4.57072C12.0003 4.57072 12.2358 4.57839 13.0196 4.61405C13.744 4.64704 14.1371 4.7686 14.3994 4.86965C14.7463 5.0041 14.9938 5.16554 15.2541 5.42542C15.5143 5.68529 15.6748 5.93316 15.8098 6.28006C15.9118 6.5416 16.0325 6.93545 16.0654 7.65985C16.1015 8.4437 16.1087 8.67831 16.1087 10.6625C16.1087 12.6467 16.1015 12.8813 16.0654 13.6651C16.0325 14.3895 15.9112 14.7833 15.8098 15.0449C15.6748 15.3918 15.514 15.6393 15.2541 15.899C14.9942 16.1586 14.7463 16.3197 14.3994 16.4548C14.1379 16.5568 13.744 16.6774 13.0196 16.7103C12.2365 16.7464 12.0012 16.7536 10.017 16.7536C8.03281 16.7536 7.7982 16.7464 7.01524 16.7103M6.95372 3.27717C6.16275 3.3132 5.62225 3.43862 5.15023 3.62229C4.66169 3.81196 4.24757 4.06643 3.83404 4.4793C3.42051 4.89218 3.1667 5.30636 2.97702 5.7955C2.79335 6.26781 2.66793 6.80801 2.63191 7.59899C2.5953 8.39121 2.58691 8.64449 2.58691 10.6623C2.58691 12.68 2.5953 12.9333 2.63191 13.7255C2.66793 14.5166 2.79335 15.0567 2.97702 15.529C3.1667 16.0176 3.42057 16.4325 3.83404 16.8452C4.24751 17.2579 4.6611 17.512 5.15023 17.7022C5.62314 17.8859 6.16275 18.0113 6.95372 18.0473C7.74636 18.0834 7.99922 18.0923 10.017 18.0923C12.0348 18.0923 12.288 18.084 13.0803 18.0473C13.8713 18.0113 14.4114 17.8859 14.8838 17.7022C15.3723 17.512 15.7864 17.2581 16.2 16.8452C16.6135 16.4323 16.8668 16.0176 17.057 15.529C17.2406 15.0567 17.3667 14.5165 17.4021 13.7255C17.4381 12.9327 17.4465 12.68 17.4465 10.6623C17.4465 8.64449 17.4381 8.39121 17.4021 7.59899C17.3661 6.80795 17.2406 6.26752 17.057 5.7955C16.8668 5.30695 16.6128 4.89283 16.2 4.4793C15.7871 4.06577 15.3723 3.81196 14.8844 3.62229C14.4114 3.43862 13.8712 3.3126 13.0809 3.27717C12.2885 3.24097 12.0354 3.23218 10.0179 3.23218C8.00041 3.23218 7.74666 3.24056 6.95402 3.27717" fill="white"/>
<defs>
<radialGradient id="paint0_radial_233_2648" cx="0" cy="0" r="1" gradientUnits="userSpaceOnUse" gradientTransform="translate(1.29011 20.1815) scale(25.3926)">
<stop offset="0.09" stop-color="#FA8F21"/>
<stop offset="0.78" stop-color="#D82D7E"/>
</radialGradient>
<radialGradient id="paint1_radial_233_2648" cx="0" cy="0" r="1" gradientUnits="userSpaceOnUse" gradientTransform="translate(13.849 19.5393) scale(22.3457)">
<stop offset="0.64" stop-color="#8C3AAA" stop-opacity="0"/>
<stop offset="1" stop-color="#8C3AAA"/>
</radialGradient>
</defs>
</svg>
