<svg width="47" height="13" viewBox="0 0 47 13" fill="none" xmlns="http://www.w3.org/2000/svg">
<path fill-rule="evenodd" clip-rule="evenodd" d="M7.55203 0.508362C7.82987 0.508362 8.10148 0.594048 8.3325 0.754585C8.56352 0.915121 8.74357 1.1433 8.8499 1.41026C8.95623 1.67722 8.98405 1.97098 8.92984 2.25439C8.87564 2.5378 8.74184 2.79812 8.54538 3.00244C8.34891 3.20677 8.0986 3.34592 7.82609 3.40229C7.55358 3.45866 7.27112 3.42973 7.01443 3.31915C6.75773 3.20857 6.53833 3.02131 6.38397 2.78105C6.22961 2.54079 6.14722 2.25832 6.14722 1.96936C6.14737 1.58193 6.29542 1.21041 6.55884 0.936454C6.82226 0.662498 7.17949 0.508521 7.55203 0.508362Z" fill="white"/>
<path d="M13.312 10.2446C12.6636 10.2446 12.1636 10.0342 11.812 9.6134C11.4605 9.1926 11.2844 8.5758 11.2836 7.763V4.715H12.6105V7.6322C12.6105 8.0966 12.7013 8.4522 12.8828 8.699C13.0644 8.9458 13.3503 9.069 13.7407 9.0686C13.9132 9.07332 14.0845 9.03876 14.2428 8.96735C14.401 8.89594 14.5424 8.7894 14.6569 8.6552C14.8976 8.38 15.018 7.9954 15.018 7.5014V4.715H16.3576V10.115H15.1732L15.0705 9.2C14.9122 9.51709 14.671 9.78123 14.3747 9.962C14.0521 10.1556 13.6845 10.2534 13.312 10.2446Z" fill="white"/>
<path d="M17.624 10.1138V4.71382H18.8078L18.9232 5.44343C19.0919 5.18223 19.3198 4.96815 19.5867 4.82002C19.8818 4.65908 20.2113 4.57857 20.5444 4.58602C21.3463 4.58602 21.915 4.90902 22.2503 5.55503C22.4407 5.25546 22.702 5.01186 23.009 4.84762C23.33 4.67221 23.6878 4.58232 24.0503 4.58602C24.7273 4.58602 25.2465 4.79662 25.608 5.21782C25.9696 5.63903 26.1509 6.25583 26.1521 7.06823V10.1156H24.8142V7.19663C24.8142 6.73223 24.7288 6.37663 24.558 6.12983C24.3873 5.88303 24.1244 5.75983 23.7694 5.76023C23.6029 5.75418 23.4373 5.78837 23.2856 5.8601C23.134 5.93183 23.0004 6.03915 22.8953 6.17363C22.6757 6.44963 22.5659 6.83423 22.5659 7.32743V10.1138H21.2246V7.19663C21.2246 6.73223 21.1373 6.37663 20.9626 6.12983C20.788 5.88303 20.5188 5.75983 20.155 5.76023C19.9898 5.75471 19.8256 5.78918 19.6754 5.86092C19.5253 5.93266 19.3932 6.03971 19.2896 6.17363C19.07 6.44963 18.96 6.83423 18.9596 7.32743V10.1138H17.624Z" fill="white"/>
<path d="M27.3261 12.5084V4.71497H28.5192L28.6657 5.48777C28.8466 5.23528 29.0722 5.02104 29.3303 4.85657C29.6061 4.67537 29.9638 4.58457 30.4034 4.58417C30.8642 4.57648 31.3177 4.70485 31.7113 4.95437C32.0956 5.20206 32.41 5.55133 32.6222 5.96657C32.8503 6.41563 32.9654 6.9174 32.9569 7.42517C32.9659 7.93127 32.8507 8.43142 32.6222 8.87836C32.4098 9.29062 32.0953 9.63635 31.7113 9.87976C31.3168 10.1259 30.8639 10.2522 30.404 10.2446C30.0496 10.2529 29.6982 10.1746 29.3782 10.016C29.0915 9.86926 28.8463 9.64788 28.6663 9.37336V12.5084H27.3261ZM30.1207 9.02837C30.317 9.0343 30.5124 8.99768 30.6943 8.92083C30.8763 8.84397 31.0409 8.72857 31.1776 8.58196C31.4569 8.28436 31.5965 7.89977 31.5965 7.42817C31.5965 6.95657 31.4569 6.56717 31.1776 6.25997C31.0424 6.1105 30.8784 5.99249 30.6962 5.91369C30.5141 5.83489 30.3179 5.79709 30.1207 5.80276C29.688 5.80276 29.3338 5.95337 29.058 6.25457C28.7822 6.55577 28.6445 6.94217 28.6449 7.41377C28.6449 7.88537 28.7826 8.27176 29.058 8.57296C29.3334 8.87416 29.6876 9.02497 30.1207 9.02536V9.02837Z" fill="white"/>
<path d="M1.37228 8.83035C2.25125 9.74447 3.44339 10.258 4.68644 10.258L4.68643 1.85443C4.68643 1.85443 4.68643 1.85443 4.68643 1.85443L4.68644 0.509226C3.44339 0.509226 2.25125 1.02278 1.37228 1.9369C0.493311 2.85103 -0.000488281 4.09085 -0.000488281 5.38363C-0.000488281 6.6764 0.493311 7.91622 1.37228 8.83035Z" fill="white"/>
<path d="M5.37821 10.2572V8.91203C6.1661 8.91153 6.92934 8.62635 7.5374 8.10528C8.14545 7.58421 8.56054 6.85961 8.71167 6.05543H5.37821V4.71023H10.0651V5.38283C10.0636 6.67511 9.56932 7.91401 8.69068 8.8278C7.81204 9.74158 6.62079 10.2556 5.37821 10.2572Z" fill="white"/>
<path d="M34.2501 10.07C34.0768 10.07 33.9268 10.01 33.8001 9.89002C33.6801 9.76335 33.6201 9.61335 33.6201 9.44002C33.6201 9.26668 33.6801 9.12002 33.8001 9.00002C33.9268 8.87335 34.0768 8.81002 34.2501 8.81002C34.4235 8.81002 34.5701 8.87335 34.6901 9.00002C34.8168 9.12002 34.8801 9.26668 34.8801 9.44002C34.8801 9.61335 34.8168 9.76335 34.6901 9.89002C34.5701 10.01 34.4235 10.07 34.2501 10.07Z" fill="white"/>
<path d="M38.3562 12.14C37.9829 12.14 37.6195 12.0967 37.2662 12.01C36.9129 11.9233 36.5929 11.8 36.3062 11.64L36.6862 10.86C36.9862 11.0133 37.2662 11.1233 37.5262 11.19C37.7929 11.2633 38.0596 11.3 38.3262 11.3C38.7729 11.3 39.1096 11.1967 39.3362 10.99C39.5695 10.7833 39.6862 10.48 39.6862 10.08V9.50002C39.2396 9.85335 38.7295 10.03 38.1562 10.03C37.6895 10.03 37.2596 9.91668 36.8662 9.69002C36.4796 9.45668 36.1729 9.14335 35.9462 8.75002C35.7196 8.35002 35.6062 7.91002 35.6062 7.43002C35.6062 6.94335 35.7196 6.50335 35.9462 6.11002C36.1796 5.71002 36.4896 5.39668 36.8762 5.17002C37.2696 4.93668 37.7095 4.82002 38.1962 4.82002C38.4696 4.82002 38.7329 4.86668 38.9862 4.96002C39.2462 5.04668 39.4829 5.17335 39.6962 5.34002V4.91002H40.6862V10.08C40.6862 10.74 40.4829 11.2467 40.0762 11.6C39.6762 11.96 39.1029 12.14 38.3562 12.14ZM38.2862 9.17002C38.5796 9.17002 38.8462 9.12002 39.0862 9.02002C39.3262 8.91335 39.5262 8.76335 39.6862 8.57002V6.29002C39.5262 6.10335 39.3229 5.95668 39.0762 5.85002C38.8362 5.74335 38.5729 5.69002 38.2862 5.69002C37.9662 5.69002 37.6762 5.76668 37.4162 5.92002C37.1629 6.07335 36.9595 6.28335 36.8062 6.55002C36.6595 6.81002 36.5862 7.10335 36.5862 7.43002C36.5862 7.75668 36.6595 8.05335 36.8062 8.32002C36.9595 8.58002 37.1629 8.78668 37.4162 8.94002C37.6762 9.09335 37.9662 9.17002 38.2862 9.17002Z" fill="white"/>
<path d="M44.3816 12.14C44.0083 12.14 43.6449 12.0967 43.2916 12.01C42.9383 11.9233 42.6183 11.8 42.3316 11.64L42.7116 10.86C43.0116 11.0133 43.2916 11.1233 43.5516 11.19C43.8183 11.2633 44.0849 11.3 44.3516 11.3C44.7983 11.3 45.1349 11.1967 45.3616 10.99C45.5949 10.7833 45.7116 10.48 45.7116 10.08V9.50002C45.2649 9.85335 44.7549 10.03 44.1816 10.03C43.7149 10.03 43.2849 9.91668 42.8916 9.69002C42.5049 9.45668 42.1983 9.14335 41.9716 8.75002C41.7449 8.35002 41.6316 7.91002 41.6316 7.43002C41.6316 6.94335 41.7449 6.50335 41.9716 6.11002C42.2049 5.71002 42.5149 5.39668 42.9016 5.17002C43.2949 4.93668 43.7349 4.82002 44.2216 4.82002C44.4949 4.82002 44.7583 4.86668 45.0116 4.96002C45.2716 5.04668 45.5083 5.17335 45.7216 5.34002V4.91002H46.7116V10.08C46.7116 10.74 46.5083 11.2467 46.1016 11.6C45.7016 11.96 45.1283 12.14 44.3816 12.14ZM44.3116 9.17002C44.6049 9.17002 44.8716 9.12002 45.1116 9.02002C45.3516 8.91335 45.5516 8.76335 45.7116 8.57002V6.29002C45.5516 6.10335 45.3483 5.95668 45.1016 5.85002C44.8616 5.74335 44.5983 5.69002 44.3116 5.69002C43.9916 5.69002 43.7016 5.76668 43.4416 5.92002C43.1883 6.07335 42.9849 6.28335 42.8316 6.55002C42.6849 6.81002 42.6116 7.10335 42.6116 7.43002C42.6116 7.75668 42.6849 8.05335 42.8316 8.32002C42.9849 8.58002 43.1883 8.78668 43.4416 8.94002C43.7016 9.09335 43.9916 9.17002 44.3116 9.17002Z" fill="white"/>
</svg>
