<svg width="14" height="15" viewBox="0 0 14 15" fill="none" xmlns="http://www.w3.org/2000/svg">
<rect x="1.39703" y="1.90015" width="11.9" height="11.9" fill="white"/>
<path d="M11.9256 12.4289H9.85125V9.18028C9.85125 8.40562 9.83742 7.40839 8.77237 7.40839C7.69197 7.40839 7.52667 8.25241 7.52667 9.12388V12.4287H5.4523V5.74821H7.44369V6.66117H7.47157C7.87762 5.96688 8.63263 5.55221 9.43638 5.58205C11.5388 5.58205 11.9265 6.96498 11.9265 8.7641L11.9256 12.4289ZM3.11173 4.83504C2.4469 4.83516 1.90786 4.2963 1.90774 3.63145C1.90762 2.96661 2.44647 2.42755 3.1113 2.42743C3.77613 2.42731 4.31518 2.96618 4.31529 3.63102C4.31535 3.95029 4.18858 4.25651 3.96287 4.4823C3.73716 4.7081 3.43099 4.83499 3.11173 4.83504ZM4.14891 12.4289H2.07239V5.74821H4.14891V12.4289ZM12.9598 0.501044H1.03002C0.466199 0.494681 0.00382941 0.946326 -0.00305176 1.51016V13.4896C0.00359382 14.0537 0.465927 14.5058 1.03002 14.4999H12.9598C13.525 14.5069 13.9891 14.0549 13.9969 13.4896V1.50929C13.9889 0.944348 13.5247 0.492729 12.9598 0.500089" fill="#C4C4C4"/>
</svg>
