<svg width="20" height="21" viewBox="0 0 20 21" fill="none" xmlns="http://www.w3.org/2000/svg">
<rect x="1.99573" y="2.61963" width="17" height="17" fill="white"/>
<path d="M17.0367 17.6609H14.0733V13.02C14.0733 11.9134 14.0535 10.4888 12.532 10.4888C10.9886 10.4888 10.7525 11.6945 10.7525 12.9395V17.6606H7.78909V8.11708H10.6339V9.4213H10.6738C11.2538 8.42946 12.3324 7.83707 13.4806 7.87969C16.4841 7.87969 17.0379 9.85532 17.0379 12.4255L17.0367 17.6609ZM4.44542 6.81255C3.49566 6.81272 2.7256 6.04291 2.72543 5.09314C2.72526 4.14336 3.49505 3.37328 4.4448 3.37311C5.39456 3.37294 6.16462 4.14274 6.16479 5.09252C6.16488 5.54862 5.98377 5.98607 5.66133 6.30863C5.33888 6.6312 4.90151 6.81247 4.44542 6.81255ZM5.92711 17.6609H2.96065V8.11708H5.92711V17.6609ZM18.514 0.62112H1.47155C0.666086 0.61203 0.00555778 1.25724 -0.00427246 2.06271V19.1763C0.00522122 19.9821 0.665697 20.628 1.47155 20.6195H18.514C19.3215 20.6295 19.9846 19.9837 19.9957 19.1763V2.06148C19.9842 1.25441 19.3211 0.609241 18.514 0.619756" fill="#0A66C2"/>
</svg>
