<svg width="40" height="40" viewBox="0 0 40 40" fill="none" xmlns="http://www.w3.org/2000/svg">
<circle cx="20" cy="20" r="20" fill="#1E1E1E"/>
<path d="M14.3592 15.808L15.9532 15.32C16.0788 15.2816 16.2108 15.2683 16.3415 15.2809C16.4723 15.2935 16.5993 15.3317 16.7152 15.3934C16.8312 15.455 16.9339 15.5389 17.0175 15.6403C17.101 15.7416 17.1638 15.8584 17.2022 15.984C17.2406 16.1096 17.2539 16.2416 17.2413 16.3723C17.2288 16.5031 17.1905 16.6301 17.1289 16.746C17.0672 16.862 16.9833 16.9647 16.882 17.0483C16.7806 17.1318 16.6638 17.1946 16.5382 17.233L12.7132 18.403C12.5875 18.4415 12.4555 18.4547 12.3247 18.4421C12.1939 18.4295 12.0669 18.3912 11.9509 18.3294C11.8349 18.2676 11.7322 18.1836 11.6487 18.0822C11.5652 17.9807 11.5025 17.8637 11.4642 17.738L10.2942 13.913C10.2558 13.7874 10.2425 13.6555 10.2551 13.5247C10.2677 13.394 10.3059 13.267 10.3675 13.151C10.4292 13.035 10.5131 12.9323 10.6144 12.8488C10.7158 12.7652 10.8326 12.7024 10.9582 12.664C11.2119 12.5865 11.486 12.6128 11.7202 12.7374C11.9545 12.8619 12.1296 13.0743 12.2072 13.328L12.6472 14.769C15.0552 11.06 19.8322 9.46503 24.0732 11.203C25.3415 11.7229 26.4805 12.5144 27.41 13.5218C28.3395 14.5292 29.0369 15.7281 29.4532 17.034C29.4959 17.1598 29.5131 17.2929 29.5038 17.4254C29.4944 17.5579 29.4588 17.6873 29.399 17.8058C29.3391 17.9244 29.2562 18.0299 29.1551 18.1161C29.0541 18.2023 28.9368 18.2675 28.8103 18.3079C28.6837 18.3483 28.5504 18.3631 28.418 18.3514C28.2857 18.3397 28.157 18.3017 28.0396 18.2397C27.9221 18.1777 27.8181 18.0929 27.7337 17.9903C27.6494 17.8877 27.5863 17.7693 27.5482 17.642C27.1257 16.3154 26.3367 15.1353 25.2721 14.238C24.2075 13.3407 22.9109 12.7628 21.5319 12.5711C20.1529 12.3793 18.7478 12.5815 17.4788 13.1542C16.2098 13.727 15.1276 14.647 14.3592 15.808ZM26.6862 24.003L24.9112 24.446C24.7827 24.4813 24.6484 24.4905 24.5163 24.4731C24.3842 24.4557 24.2568 24.4121 24.1418 24.3448C24.0268 24.2775 23.9263 24.1879 23.8464 24.0812C23.7665 23.9746 23.7087 23.853 23.6765 23.7237C23.6442 23.5944 23.6381 23.4599 23.6586 23.3282C23.679 23.1966 23.7256 23.0703 23.7955 22.9568C23.8655 22.8434 23.9574 22.7451 24.0659 22.6677C24.1743 22.5902 24.2972 22.5353 24.4272 22.506L28.0702 21.597C28.26 21.5067 28.4735 21.4787 28.6802 21.517C28.8794 21.5432 29.066 21.6288 29.2158 21.7626C29.3656 21.8963 29.4717 22.0721 29.5202 22.267L30.4882 26.147C30.5456 26.4019 30.5009 26.669 30.3638 26.8914C30.2268 27.1137 30.0081 27.2736 29.7547 27.3368C29.5012 27.4001 29.2331 27.3616 29.0077 27.2297C28.7822 27.0978 28.6173 26.8829 28.5482 26.631L28.2182 25.309C27.2554 26.6946 25.9367 27.7948 24.401 28.4939C22.8654 29.1929 21.1696 29.4648 19.4924 29.2809C17.8152 29.097 16.2186 28.4642 14.8708 27.4492C13.5231 26.4341 12.474 25.0743 11.8342 23.513L11.5742 22.879C11.5244 22.7575 11.4991 22.6273 11.4996 22.496C11.5002 22.3647 11.5265 22.2347 11.5773 22.1136C11.628 21.9925 11.7021 21.8825 11.7954 21.79C11.8886 21.6975 11.9992 21.6243 12.1207 21.5745C12.3662 21.474 12.6415 21.4751 12.8861 21.5776C13.0073 21.6284 13.1172 21.7025 13.2097 21.7957C13.3022 21.8889 13.3754 21.9995 13.4252 22.121L13.6852 22.754C14.195 23.9979 15.0347 25.0789 16.1138 25.8804C17.1929 26.6819 18.4705 27.1735 19.8085 27.3022C21.1466 27.4308 22.4944 27.1916 23.7064 26.6104C24.9185 26.0291 25.9488 25.1269 26.6862 24.003Z" fill="white"/>
</svg>
