<svg width="25" height="24" viewBox="0 0 25 24" fill="none" xmlns="http://www.w3.org/2000/svg">
<path d="M16.338 2.40002C16.8979 2.39997 17.4491 2.54712 17.9413 2.82813C18.4335 3.10914 18.8512 3.5151 19.1564 4.00914C19.4617 4.50318 19.6449 5.06965 19.6893 5.6571C19.7337 6.24456 19.638 6.83439 19.4108 7.37303C19.1837 7.91167 18.8322 8.38205 18.3885 8.74146C17.9447 9.10087 17.4226 9.33792 16.8697 9.43108C16.3168 9.52424 15.7505 9.47056 15.2223 9.27492C14.6941 9.07927 14.2207 8.74786 13.8451 8.31079L9.46984 10.9414C9.67477 11.6297 9.67477 12.3675 9.46984 13.0558L13.8441 15.6884C14.4003 15.0416 15.1639 14.6339 15.9883 14.5435C16.8127 14.4532 17.6398 14.6865 18.3107 15.1987C18.9815 15.711 19.449 16.466 19.6231 17.3189C19.7973 18.1717 19.6659 19.0621 19.2543 19.8193C18.8427 20.5764 18.1797 21.1467 17.3929 21.4208C16.606 21.6949 15.7506 21.6534 14.9911 21.3043C14.2315 20.9551 13.6213 20.323 13.2776 19.5292C12.9339 18.7354 12.881 17.836 13.129 17.0037L8.75471 14.37C8.29911 14.9002 7.70159 15.2727 7.04087 15.4384C6.38014 15.6042 5.68722 15.5554 5.05337 15.2985C4.41952 15.0416 3.87449 14.5886 3.49007 13.9993C3.10566 13.4099 2.8999 12.7119 2.8999 11.9971C2.8999 11.2822 3.10566 10.5842 3.49007 9.99484C3.87449 9.40551 4.41952 8.95256 5.05337 8.69566C5.68722 8.43875 6.38014 8.38995 7.04087 8.55568C7.70159 8.72141 8.29911 9.09389 8.75471 9.62406L13.129 6.99347C12.9716 6.46374 12.9349 5.90248 13.0218 5.35505C13.1086 4.80762 13.3167 4.28937 13.6291 3.84221C13.9415 3.39504 14.3494 3.0315 14.82 2.78097C15.2906 2.53043 15.8106 2.39994 16.338 2.40002ZM16.338 16.0379C15.8283 16.0379 15.3395 16.251 14.9791 16.6303C14.6187 17.0096 14.4162 17.524 14.4162 18.0604C14.4162 18.5967 14.6187 19.1112 14.9791 19.4904C15.3395 19.8697 15.8283 20.0828 16.338 20.0828C16.8477 20.0828 17.3365 19.8697 17.6968 19.4904C18.0572 19.1112 18.2597 18.5967 18.2597 18.0604C18.2597 17.524 18.0572 17.0096 17.6968 16.6303C17.3365 16.251 16.8477 16.0379 16.338 16.0379ZM6.26087 9.97663C5.75119 9.97663 5.26239 10.1897 4.902 10.569C4.5416 10.9483 4.33913 11.4627 4.33913 11.9991C4.33913 12.5355 4.5416 13.0499 4.902 13.4292C5.26239 13.8084 5.75119 14.0215 6.26087 14.0215C6.77054 14.0215 7.25935 13.8084 7.61974 13.4292C7.98013 13.0499 8.1826 12.5355 8.1826 11.9991C8.1826 11.4627 7.98013 10.9483 7.61974 10.569C7.25935 10.1897 6.77054 9.97663 6.26087 9.97663ZM16.338 3.91534C15.8283 3.91535 15.3395 4.12842 14.9791 4.50771C14.6187 4.88699 14.4162 5.40141 14.4162 5.93779C14.4162 6.47418 14.6187 6.9886 14.9791 7.36788C15.3395 7.74716 15.8283 7.96024 16.338 7.96024C16.8477 7.96024 17.3365 7.74716 17.6968 7.36788C18.0572 6.9886 18.2597 6.47418 18.2597 5.93779C18.2597 5.40141 18.0572 4.88699 17.6968 4.50771C17.3365 4.12842 16.8477 3.91535 16.338 3.91534Z" fill="white"/>
</svg>
