<svg width="32" height="32" viewBox="0 0 32 32" fill="none" xmlns="http://www.w3.org/2000/svg">
<path d="M5.74359 23.7948H26.2564V8.20508H5.74359V23.7948ZM8.20515 10.6666H23.7949V21.3333H8.20515V10.6666Z" fill="white"/>
<path d="M32 8.96693C32 5.37974 29.1095 2.46143 25.5566 2.46143C23.0974 2.46143 22.6769 3.34055 20.7786 3.34055C18.7488 3.34055 18.6154 2.46143 16.0006 2.46143C16.0004 2.46143 16.0008 2.46143 16.0006 2.46143C16.0004 2.46143 15.9996 2.46143 15.9995 2.46143C13.3847 2.46143 13.2514 3.34055 11.2217 3.34055C9.32319 3.34055 8.90269 2.46143 6.4435 2.46143C2.8905 2.46143 0 5.37974 0 8.96693C0 12.2802 0.8145 13.0323 0.8145 15.9999C0.8145 18.9674 0 19.7195 0 23.0328C0 26.62 2.8905 29.5383 6.44338 29.5383C8.90256 29.5383 9.32306 28.6592 11.2214 28.6592C13.2513 28.6592 13.3846 29.5383 15.9993 29.5383C15.9992 29.5383 15.9996 29.5383 15.9993 29.5383C15.9994 29.5383 16.0003 29.5383 16.0004 29.5383C18.6152 29.5383 18.7486 28.6592 20.7783 28.6592C22.6768 28.6592 23.0972 29.5383 25.5564 29.5383C29.1094 29.5383 31.9999 26.62 31.9999 23.0328C31.9999 19.7196 31.1854 18.9674 31.1854 15.9999C31.1854 13.0323 32 12.2802 32 8.96693ZM29.5384 23.0328C29.5384 25.2627 27.7522 27.0768 25.5566 27.0768C23.6308 27.0768 23.241 26.1977 20.7785 26.1977C18.4718 26.1977 17.8051 27.0768 16.0006 27.0768C16.0003 27.0768 16.0007 27.0768 16.0006 27.0768C16.0003 27.0768 15.9996 27.0768 15.9994 27.0768C14.1949 27.0768 13.5282 26.1977 11.2216 26.1977C8.759 26.1977 8.36925 27.0768 6.44344 27.0768C4.24781 27.0768 2.46156 25.2627 2.46156 23.0328C2.46156 20.1161 3.27606 19.3777 3.27606 15.9999C3.27606 12.6221 2.46156 11.8836 2.46156 8.96693C2.46156 6.73699 4.24781 4.92293 6.44344 4.92293C8.36925 4.92293 8.759 5.80205 11.2215 5.80205C13.5282 5.80205 14.1949 4.92293 15.9994 4.92293C15.9993 4.92293 15.9997 4.92293 15.9994 4.92293C15.9996 4.92293 16.0004 4.92293 16.0006 4.92293C17.8051 4.92293 18.4718 5.80205 20.7784 5.80205C23.241 5.80205 23.6308 4.92293 25.5566 4.92293C27.7522 4.92293 29.5384 6.73699 29.5384 8.96693C29.5384 11.8836 28.7239 12.6221 28.7239 15.9999C28.7239 19.3777 29.5384 20.1161 29.5384 23.0328Z" fill="white"/>
<path d="M16.5696 14.3886C16.5696 15.5681 17.5288 16.5273 18.7082 16.5273C19.8877 16.5273 20.8468 15.5681 20.8468 14.3886C20.8468 13.2092 19.8877 12.25 18.7082 12.25C17.5288 12.25 16.5696 13.2092 16.5696 14.3886ZM18.7082 13.18C19.3744 13.18 19.9168 13.7224 19.9168 14.3886C19.9168 15.0548 19.3744 15.5972 18.7082 15.5972C18.042 15.5972 17.4996 15.0548 17.4996 14.3886C17.4996 13.7224 18.042 13.18 18.7082 13.18Z" fill="white" stroke="white" stroke-width="0.5"/>
<path d="M13.1291 16.5273C14.3086 16.5273 15.2677 15.5681 15.2677 14.3886C15.2677 13.2092 14.3086 12.25 13.1291 12.25C11.9497 12.25 10.9905 13.2092 10.9905 14.3886C10.9905 15.5681 11.9497 16.5273 13.1291 16.5273ZM13.1291 13.18C13.7953 13.18 14.3377 13.7224 14.3377 14.3886C14.3377 15.0548 13.7953 15.5972 13.1291 15.5972C12.4629 15.5972 11.9205 15.0548 11.9205 14.3886C11.9205 13.7224 12.4629 13.18 13.1291 13.18Z" fill="white" stroke="white" stroke-width="0.5"/>
<path d="M13.3122 17.5727C11.1271 17.5727 9.35 19.3497 9.35 21.5349C9.35 21.8745 9.6253 22.1499 9.96502 22.1499C10.3048 22.1499 10.58 21.8745 10.58 21.5349C10.58 20.0287 11.8061 18.8027 13.3122 18.8027C14.8184 18.8027 16.0444 20.0287 16.0444 21.5349C16.0444 21.8745 16.3197 22.1499 16.6595 22.1499C16.9992 22.1499 17.2745 21.8745 17.2745 21.5349C17.2745 19.3497 15.4974 17.5727 13.3122 17.5727Z" fill="white" stroke="white" stroke-width="0.8"/>
<path d="M15.8529 19.9978L15.8528 19.9977C15.5827 19.792 15.5303 19.4061 15.7362 19.1358L15.8529 19.9978ZM15.8529 19.9978C16.1231 20.2036 16.5088 20.1513 16.7146 19.8813L16.7147 19.8812M15.8529 19.9978L16.7147 19.8812M16.7147 19.8812C17.2376 19.1948 18.0288 18.8027 18.8899 18.8027C20.396 18.8027 21.6221 20.0287 21.6221 21.5349C21.6221 21.8745 21.8974 22.1499 22.2371 22.1499C22.5768 22.1499 22.8521 21.8745 22.8521 21.5349C22.8521 19.3497 21.075 17.5727 18.8898 17.5727C17.6433 17.5727 16.4923 18.1434 15.7363 19.1358L16.7147 19.8812Z" fill="white" stroke="white" stroke-width="0.8"/>
</svg>
