<svg width="33" height="32" viewBox="0 0 33 32" fill="none" xmlns="http://www.w3.org/2000/svg">
<circle cx="16.5" cy="16.3804" r="12.5" fill="white"/>
<path fill-rule="evenodd" clip-rule="evenodd" d="M16.4959 2C8.77799 2 2.5 8.27974 2.5 15.9999C2.5 19.0616 3.48737 21.901 5.16584 24.2057L3.42143 29.4072L8.80259 27.6874C11.0158 29.1524 13.6571 30 16.5041 30C24.222 30 30.5 23.72 30.5 16.0001C30.5 8.27999 24.222 2.00023 16.5041 2.00023L16.4959 2ZM12.5875 9.11132C12.316 8.46116 12.1103 8.43654 11.699 8.41982C11.559 8.41169 11.403 8.40356 11.23 8.40356C10.6949 8.40356 10.1355 8.55989 9.79811 8.90553C9.38686 9.32526 8.36648 10.3046 8.36648 12.3129C8.36648 14.3212 9.83108 16.2635 10.0285 16.5353C10.2342 16.8066 12.8838 20.9877 16.9977 22.6917C20.2149 24.025 21.1695 23.9014 21.9017 23.7451C22.9713 23.5147 24.3126 22.7242 24.65 21.7698C24.9874 20.8149 24.9874 20 24.8885 19.8272C24.7898 19.6544 24.5181 19.5559 24.1068 19.3499C23.6956 19.1441 21.696 18.1564 21.3174 18.0247C20.9471 17.8848 20.5934 17.9343 20.3138 18.3294C19.9188 18.8809 19.5322 19.4407 19.2194 19.778C18.9725 20.0414 18.5692 20.0743 18.232 19.9343C17.7794 19.7452 16.5124 19.3004 14.9489 17.9095C13.7393 16.8314 12.9166 15.49 12.6781 15.0868C12.4394 14.6754 12.6534 14.4364 12.8425 14.2143C13.0482 13.959 13.2456 13.7781 13.4513 13.5393C13.6571 13.3008 13.7723 13.1772 13.9039 12.8973C14.044 12.6257 13.945 12.3458 13.8463 12.14C13.7476 11.9342 12.9249 9.92593 12.5875 9.11132Z" fill="#00E676"/>
</svg>
